<?xml version="1.0" encoding="iso-8859-1"?>
<!-- Uploaded to: SVG Repo, www.svgrepo.com, Generator: SVG Repo Mixer Tools -->
<!DOCTYPE svg PUBLIC "-//W3C//DTD SVG 1.1//EN" "http://www.w3.org/Graphics/SVG/1.1/DTD/svg11.dtd">
<svg fill="#000000" version="1.1" id="Capa_1" xmlns="http://www.w3.org/2000/svg" xmlns:xlink="http://www.w3.org/1999/xlink" 
	 width="800px" height="800px" viewBox="0 0 403.001 403.001"
	 xml:space="preserve">
<g>
	<g>
		<path d="M247.675,0h-92.35c-40.65,0-73.722,33.071-73.722,73.721v255.557c0,40.649,33.072,73.723,73.722,73.723h92.35
			c40.65,0,73.723-33.072,73.723-73.723V73.721C321.398,33.071,288.326,0,247.675,0z M247.675,377.777h-92.35
			c-26.743,0-48.5-21.758-48.5-48.5v-16.09h189.35v16.09C296.175,356.021,274.417,377.777,247.675,377.777z M296.175,97.965v190
			h-189.35v-190H296.175z M155.325,25.221h92.35c26.416,0,47.967,21.228,48.49,47.521H106.834
			C107.356,46.448,128.908,25.221,155.325,25.221z"/>
		<path d="M228.474,330.555h-51.849c-6.954,0-12.611,5.657-12.611,12.611s5.657,12.611,12.611,12.611h51.849
			c6.955,0,12.611-5.657,12.611-12.611S235.429,330.555,228.474,330.555z"/>
		<path d="M201.495,66.221c3.256,0,6.512-1.35,8.952-3.718c2.324-2.333,3.66-5.595,3.66-8.948c0-3.318-1.336-6.561-3.67-8.901
			c-2.266-2.234-5.521-3.516-8.937-3.516c-3.419,0-6.664,1.284-8.9,3.522c-2.362,2.362-3.716,5.604-3.716,8.895
			c0,3.325,1.354,6.587,3.716,8.949C194.962,64.866,198.204,66.221,201.495,66.221z"/>
	</g>
</g>
</svg>