<?xml version="1.0" encoding="UTF-8"?>
<svg id="katman_1" xmlns="http://www.w3.org/2000/svg" version="1.1" viewBox="0 0 800.5 212.2">
  <!-- Generator: Adobe Illustrator 29.0.1, SVG Export Plug-In . SVG Version: 2.1.0 Build 192)  -->
  <defs>
    <style>
      .st0 {
        fill: #5c46f0;
      }
    </style>
  </defs>
  <g>
    <path class="st0" d="M127.9,80.4c-6.7,8.3-17.7,11.9-27.9,9-43.8-12.4-80-17.5-97.6-19.4-2.4-.3-3.3,3-1.2,4.2,53.3,29.2,75.2,75.9,82.1,121.6,1.4,9.4,9.5,16.4,19,16.4h0s0,0,.1,0c6.5,0,12.4-3.9,14.6-10,12.9-36,54.7-152,70.1-194.8.9-2.5-2.5-4.2-4-2-27.3,38.9-45,62.1-55.3,75Z"/>
    <path class="st0" d="M95.8,70.5c19.5,0,35.2-15.8,35.2-35.2S115.2,0,95.8,0s-35.2,15.8-35.2,35.2,15.8,35.2,35.2,35.2Z"/>
  </g>
  <g>
    <g>
      <path class="st0" d="M214,82.8h10.9l8.2,33.8,7-33.8h11.4l-12.7,47.6h-10l-9.4-35.2-9.4,35.2h-10l-12.7-47.6h11.4l7,33.8,8.1-33.8Z"/>
      <path class="st0" d="M265.5,109.7c.4,4.2,1.8,7.4,4.3,9.7,2.5,2.3,5.4,3.5,8.6,3.5,5.9,0,9.8-2.2,11.7-6.6h10.4c-1.2,4.3-3.7,7.9-7.4,10.9-3.7,3-8.4,4.5-14.2,4.5s-13.2-2.4-17.6-7.3c-4.3-4.9-6.5-10.9-6.5-18s2.2-13,6.6-17.6c4.4-4.6,10-6.9,16.8-6.9s13,2.6,17.2,7.9c4.2,5.3,6.1,11.9,5.6,20h-35.5ZM265.5,102h24.8c-.1-3.6-1.4-6.5-3.7-8.7-2.4-2.2-5.2-3.3-8.4-3.3s-5.7,1-8.2,2.9c-2.5,1.9-4,4.9-4.4,9.1Z"/>
      <path class="st0" d="M320.2,130.5h-10.5v-64.2h10.5v64.2Z"/>
      <path class="st0" d="M373.5,99.1h-10.3c-.5-2.5-1.7-4.6-3.8-6.2-2-1.6-4.5-2.4-7.3-2.4s-6.5,1.4-8.9,4.1-3.6,6.7-3.6,12,1.2,9.3,3.5,12.1c2.4,2.7,5.3,4.1,8.7,4.1s5.3-.7,7.5-2.1c2.2-1.4,3.6-3.6,4.2-6.6h10.3c-1,5.4-3.6,9.6-7.8,12.7-4.2,3.1-9,4.7-14.3,4.7s-12.4-2.3-16.6-7c-4.2-4.7-6.3-10.6-6.3-17.8s2.2-13.2,6.5-17.9c4.3-4.7,9.9-7.1,16.9-7.1s10,1.6,14,4.8c4,3.2,6.5,7.4,7.3,12.6Z"/>
      <path class="st0" d="M418.9,88.2c4.6,4.3,6.9,10.5,6.9,18.5s-2.3,14.2-6.9,18.5c-4.6,4.3-10.1,6.4-16.5,6.4s-11.9-2.1-16.5-6.4c-4.6-4.3-6.9-10.4-6.9-18.5s2.3-14.2,6.9-18.5c4.6-4.3,10.1-6.5,16.5-6.5s11.9,2.2,16.5,6.5ZM393.5,118.8c2.4,2.8,5.4,4.2,8.9,4.2s6.5-1.4,8.9-4.2c2.4-2.8,3.6-6.8,3.6-12s-1.2-9.3-3.6-12.1c-2.4-2.8-5.4-4.3-8.9-4.3s-6.5,1.4-8.9,4.3c-2.4,2.8-3.6,6.9-3.6,12.1s1.2,9.2,3.6,12Z"/>
      <path class="st0" d="M445.1,130.5h-10.5v-47.6h10.5v6.6c2.8-5.1,7.4-7.7,13.8-7.7s11.5,2.8,13.9,8.4c3.8-5.6,8.9-8.4,15.5-8.4,10.4,0,15.6,6.3,15.6,18.8v29.9h-10.5v-27.4c0-1.9,0-3.6-.2-4.8-.1-1.3-.5-2.6-1-3.9-.5-1.3-1.4-2.3-2.6-3-1.2-.7-2.7-1-4.6-1-7,0-10.4,4.9-10.4,14.8v25.3h-10.5v-27.4c0-1.9,0-3.6-.2-4.8-.1-1.3-.5-2.6-1-3.9s-1.4-2.3-2.6-3-2.7-1-4.6-1c-7,0-10.4,4.9-10.4,14.8v25.3Z"/>
      <path class="st0" d="M525.4,66.3v10.6h-10.5v-10.6h10.5ZM525.4,82.8v47.6h-10.5v-47.6h10.5Z"/>
      <path class="st0" d="M547.8,89.5c2.8-5.1,7.6-7.7,14.4-7.7,10.8,0,16.2,6.3,16.2,18.8v29.9h-10.5v-27.4c0-1.5,0-2.8-.2-3.9-.1-1.1-.4-2.2-.7-3.4-.4-1.2-.8-2.1-1.5-2.9s-1.5-1.4-2.7-1.9c-1.1-.5-2.5-.8-4-.8-7.4,0-11.1,4.9-11.1,14.8v25.3h-10.5v-47.6h10.5v6.6Z"/>
      <path class="st0" d="M621,82.8h10.5v42.8c0,7.7-1.9,13.3-5.8,16.8-3.7,3.4-9.3,5.1-16.9,5.1s-10.1-1.2-13.8-3.6c-3.6-2.4-5.8-6.1-6.6-11h10.4c.5,2.2,1.5,3.8,3.1,4.8s4,1.5,7.1,1.5,7.5-1.1,9.5-3.5c1.6-1.8,2.4-4.5,2.4-8.1v-5.6c-3,5-7.7,7.4-14.2,7.4s-10.8-2.2-14.7-6.6c-4-4.4-6-10.2-6-17.4s2-13,6-17.4c4-4.4,8.9-6.6,14.7-6.6s11.2,2.5,14.2,7.4v-6.4ZM609.1,90.2c-3.5,0-6.4,1.4-8.7,4.2s-3.4,6.6-3.4,11.3,1.1,8.6,3.4,11.4c2.2,2.8,5.1,4.2,8.7,4.2s6.6-1.3,8.9-4c2.3-2.7,3.4-6.6,3.4-11.7s-1.1-8.9-3.4-11.6c-2.3-2.6-5.2-3.9-8.9-3.9Z"/>
    </g>
    <g>
      <path d="M656.9,120.1l11.8-39h5.5l12.2,39,10.2-39h6.1l-13.8,47.6h-5.1l-12.5-40-12.1,40h-5l-13.8-47.6h6.1l10.5,39Z"/>
      <path d="M728.4,129.9c-6.9,0-12.4-2.3-16.4-6.8-4-4.5-6.1-10.5-6.1-18s2.1-13.5,6.3-18c4.2-4.5,9.5-6.8,16-6.8s11.9,2.5,15.8,7.5c4,5,5.8,11.2,5.4,18.7h-37.9c.1,5.7,1.8,10.1,5,13.4,3.2,3.3,7.3,4.9,12.2,4.9s6.8-.9,9.3-2.7c2.5-1.8,4.2-4.4,5.2-7.7h5.8c-1.2,5-3.6,8.8-7.2,11.4-3.6,2.7-8.1,4-13.5,4ZM739.2,90.2c-2.8-3.3-6.5-4.9-11.1-4.9s-8.3,1.4-11.2,4.2c-2.9,2.8-4.6,6.8-5.2,12h31.7c0-4.3-1.4-8-4.2-11.3Z"/>
      <path d="M794.8,86.9c3.8,4.4,5.7,10.5,5.7,18.1s-1.9,13.7-5.7,18.1c-3.8,4.4-8.5,6.6-14.2,6.6s-12.5-3-16.1-8.9v7.8h-5.5v-64.2h5.5v24.8c3.6-6,9-9,16.1-9s10.4,2.2,14.2,6.6ZM768.7,90.3c-3.1,3.3-4.6,8.3-4.6,14.8s1.5,11.5,4.6,14.8c3.1,3.3,6.6,5,10.7,5s8.2-1.8,11-5.3c2.8-3.5,4.2-8.4,4.2-14.6s-1.4-11.1-4.2-14.6c-2.8-3.5-6.4-5.3-11-5.3s-7.6,1.7-10.7,5Z"/>
    </g>
  </g>
</svg>