<?xml version="1.0" encoding="UTF-8"?>
<svg id="katman_1" xmlns="http://www.w3.org/2000/svg" version="1.1" viewBox="0 0 659.4 747">
  <!-- Generator: Adobe Illustrator 29.0.1, SVG Export Plug-In . SVG Version: 2.1.0 Build 192)  -->
  <defs>
    <style>
      .st0 {
        fill: #c13434;
      }

      .st1 {
        fill: #fff;
      }
    </style>
  </defs>
  <path class="st0" d="M180.6,480.6c-.2.9-.6,1.8-.9,2.7l.9-2.7Z"/>
  <g>
    <path class="st1" d="M450.2,283.2c-23.4,29.4-62.2,41.9-98.4,31.6C197.6,271,70.3,253.1,8.4,246.4c-8.6-.9-11.7,10.7-4.1,14.8,187.6,102.9,264.6,267.1,289.1,428.2,5,33.1,33.4,57.7,66.9,57.6h0c.1,0,.3,0,.4,0,23,0,43.7-13.6,51.4-35.2,45.6-126.7,192.6-535.1,246.7-685.6,3.1-8.7-8.7-14.8-14-7.2-96,137-158.4,218.8-194.6,264.2Z"/>
    <path class="st1" d="M337.1,248.2c68.5,0,124.1-55.6,124.1-124.1S405.6,0,337.1,0s-124.1,55.6-124.1,124.1,55.6,124.1,124.1,124.1Z"/>
  </g>
</svg>